<svg t="1565945041849" class="icon" viewBox="0 0 1024 1024" version="1.1" xmlns="http://www.w3.org/2000/svg" p-id="2082" width="200" height="200"><path d="M841.728 530.870857c10.276571-182.857143-129.718857-334.299429-310.857143-345.161143-180.004571-10.861714-339.419429 126.281143-349.696 307.419429-10.276571 182.857143 129.718857 334.299429 311.442286 345.161143 180.004571 10.861714 339.419429-125.696 349.147428-307.419429zM1024 0l-199.424 198.838857c90.843429 88.576 139.995429 212.004571 131.986286 338.870857-12.580571 212.553143-176.018286 382.281143-385.718857 410.843429L0 1024l198.290286-198.290286a437.650286 437.650286 0 0 1-131.986286-338.870857c13.129143-213.138286 176.018286-382.866286 386.304-411.428571C642.889143 50.249143 833.755429 25.124571 1024.036571-0.036571z" fill="" p-id="2083"></path></svg>